<?xml version="1.0" encoding="UTF-8"?>
<svg width="16px" height="18px" viewBox="0 0 16 18" version="1.1" xmlns="http://www.w3.org/2000/svg" xmlns:xlink="http://www.w3.org/1999/xlink">
    <!-- Generator: Sketch 64 (93537) - https://sketch.com -->
    <title>Icon / Perm Identity / Rounded</title>
    <desc>Created with Sketch.</desc>
    <defs>
        <path d="M13.3333333,11.6666667 C15.6345198,11.6666667 17.5,13.5321469 17.5,15.8333333 L17.5,15.8333333 L17.5,17.5 C17.5,17.9602373 17.126904,18.3333333 16.6666667,18.3333333 C16.2064294,18.3333333 15.8333333,17.9602373 15.8333333,17.5 L15.8333333,17.5 L15.8333333,15.8333333 C15.8333333,14.4526215 14.7140452,13.3333333 13.3333333,13.3333333 L13.3333333,13.3333333 L6.66666667,13.3333333 C5.28595479,13.3333333 4.16666667,14.4526215 4.16666667,15.8333333 L4.16666667,15.8333333 L4.16666667,17.5 C4.16666667,17.9602373 3.79357062,18.3333333 3.33333333,18.3333333 C2.87309604,18.3333333 2.5,17.9602373 2.5,17.5 L2.5,17.5 L2.5,15.8333333 C2.5,13.5321469 4.36548021,11.6666667 6.66666667,11.6666667 L6.66666667,11.6666667 Z M10,1.66666667 C12.3011865,1.66666667 14.1666667,3.53214688 14.1666667,5.83333333 C14.1666667,8.13451979 12.3011865,10 10,10 C7.69881354,10 5.83333333,8.13451979 5.83333333,5.83333333 C5.83333333,3.53214688 7.69881354,1.66666667 10,1.66666667 Z M10,3.33333333 C8.61928813,3.33333333 7.5,4.45262146 7.5,5.83333333 C7.5,7.21404521 8.61928813,8.33333333 10,8.33333333 C11.3807119,8.33333333 12.5,7.21404521 12.5,5.83333333 C12.5,4.45262146 11.3807119,3.33333333 10,3.33333333 Z" id="path-1"></path>
    </defs>
    <g id="Symbols" stroke="none" stroke-width="1" fill="none" fill-rule="evenodd">
        <g id="Menu-/-Dropdown-/-Account" transform="translate(-93.000000, -13.000000)">
            <g id="Markets">
                <g id="user" transform="translate(91.000000, 12.000000)">
                    <mask id="mask-2" fill="white">
                        <use xlink:href="#path-1"></use>
                    </mask>
                    <use id="Combined-Shape" fill="#000000" fill-rule="nonzero" xlink:href="#path-1"></use>
                    <g id="COLOR/-black" mask="url(#mask-2)" fill="#000000" fill-rule="evenodd">
                        <rect id="Rectangle" x="0" y="0" width="20" height="20"></rect>
                    </g>
                </g>
            </g>
        </g>
    </g>
</svg>