<svg xmlns="http://www.w3.org/2000/svg" xmlns:xlink="http://www.w3.org/1999/xlink" width="5312" height="726"><defs><circle id="a" r="2.5" fill="#1652F0"/><circle id="b" r="2.5" fill="#F7A94C"/><pattern id="c" height="9" width="100%" patternUnits="userSpaceOnUse"><rect width="100%" height="3" fill="#1652F0" opacity="10%"/></pattern><svg id="d" x="0" y="0" width="664" height="363"><use x="15" y="10.5" xlink:href="#a"/><use x="349" y="28.5" xlink:href="#a"/><use x="197" y="37.5" xlink:href="#b"/><use x="487" y="55.5" xlink:href="#b"/><use x="487" y="55.5" xlink:href="#b"/><use x="100" y="91.5" xlink:href="#b"/><use x="610" y="91.5" xlink:href="#a"/><use x="610" y="91.5" xlink:href="#a"/><use x="449" y="109.5" xlink:href="#b"/><use x="201" y="145.5" xlink:href="#a"/><use x="550" y="163.5" xlink:href="#a"/><use x="369" y="172.5" xlink:href="#a"/><use x="60" y="253.5" xlink:href="#b"/><use x="276" y="271.5" xlink:href="#a"/><use x="409" y="271.5" xlink:href="#b"/><use x="625" y="289.5" xlink:href="#a"/><use x="217" y="307.5" xlink:href="#b"/><use x="560" y="325.5" xlink:href="#b"/><use x="131" y="334.5" xlink:href="#a"/></svg></defs><rect width="100%" height="100%" fill="url(#c)"/><use xlink:href="#d"/><use x="664" xlink:href="#d"/><use x="1328" xlink:href="#d"/><use x="1992" xlink:href="#d"/><use x="2656" xlink:href="#d"/><use x="3320" xlink:href="#d"/><use x="3984" xlink:href="#d"/><use x="4648" xlink:href="#d"/><use y="360" xlink:href="#d"/><use x="664" y="360" xlink:href="#d"/><use x="1328" y="360" xlink:href="#d"/><use x="1992" y="360" xlink:href="#d"/><use x="2656" y="360" xlink:href="#d"/><use x="3320" y="360" xlink:href="#d"/><use x="3984" y="360" xlink:href="#d"/><use x="4648" y="360" xlink:href="#d"/></svg>