<?xml version="1.0" encoding="UTF-8"?>
<svg width="18px" height="20px" viewBox="0 0 18 20" version="1.1" xmlns="http://www.w3.org/2000/svg" xmlns:xlink="http://www.w3.org/1999/xlink">
    <!-- Generator: Sketch 64 (93537) - https://sketch.com -->
    <title>Icon / Perm Identity / Rounded Copy 3</title>
    <desc>Created with Sketch.</desc>
    <defs>
        <path d="M8.33333333,0.833333333 C8.79357062,0.833333333 9.16666667,1.20642938 9.16666667,1.66666667 C9.16666667,2.12690396 8.79357062,2.5 8.33333333,2.5 L8.33333333,2.5 L4.16666667,2.5 C3.70642938,2.5 3.33333333,2.87309604 3.33333333,3.33333333 L3.33333333,3.33333333 L3.33333333,16.6666667 C3.33333333,17.126904 3.70642938,17.5 4.16666667,17.5 L4.16666667,17.5 L8.33333333,17.5 C8.79357062,17.5 9.16666667,17.873096 9.16666667,18.3333333 C9.16666667,18.7935706 8.79357062,19.1666667 8.33333333,19.1666667 L8.33333333,19.1666667 L4.16666667,19.1666667 C2.78595479,19.1666667 1.66666667,18.0473785 1.66666667,16.6666667 L1.66666667,16.6666667 L1.66666667,3.33333333 C1.66666667,1.95262146 2.78595479,0.833333333 4.16666667,0.833333333 L4.16666667,0.833333333 Z M13.577411,6.07741102 C13.9028479,5.75197411 14.4304854,5.75197411 14.7559223,6.07741102 L14.7559223,6.07741102 L18.0892557,9.41074435 C18.0946796,9.4161683 18.1000131,9.42164841 18.1052563,9.42718282 C18.1184045,9.44106212 18.1313649,9.45573235 18.1438033,9.47084828 C18.1550002,9.4843987 18.1653828,9.49783807 18.1752987,9.51151074 C18.1882352,9.52946069 18.200646,9.54810528 18.2123062,9.56725718 C18.2175486,9.57572721 18.2226629,9.58448584 18.227604,9.5933153 C18.2950057,9.71392798 18.3333333,9.85248805 18.3333333,10 C18.3333333,10.1085429 18.3125814,10.2122388 18.2748285,10.3073369 C18.2701084,10.3192567 18.2648257,10.3317271 18.2592256,10.3440889 C18.2500223,10.3642679 18.2403904,10.3834222 18.2300599,10.4021368 C18.2225839,10.4158386 18.2144138,10.4297059 18.2058082,10.4433775 C18.1958723,10.4590033 18.185781,10.473917 18.1752303,10.4884761 C18.1498137,10.5236482 18.1210919,10.5574194 18.0892557,10.5892557 L18.1483347,10.5235967 C18.1330463,10.5425036 18.1169477,10.5607282 18.1000917,10.5782179 L18.0892557,10.5892557 L14.7559223,13.922589 C14.4304854,14.2480259 13.9028479,14.2480259 13.577411,13.922589 C13.2519741,13.5971521 13.2519741,13.0695146 13.577411,12.7440777 L13.577411,12.7440777 L15.4866667,10.8333333 L7.5,10.8333333 C7.07516558,10.8333333 6.72458169,10.515429 6.67315952,10.1045316 L6.66666667,10 C6.66666667,9.53976271 7.03976271,9.16666667 7.5,9.16666667 L7.5,9.16666667 L15.4876667,9.16633333 L13.577411,7.25592232 C13.2790938,6.95760515 13.2542341,6.48938334 13.5028317,6.16274873 Z" id="path-1"></path>
    </defs>
    <g id="Symbols" stroke="none" stroke-width="1" fill="none" fill-rule="evenodd">
        <g id="Menu-/-Dropdown-/-Account" transform="translate(-92.000000, -94.000000)">
            <g id="Markets">
                <g id="log-out" transform="translate(91.000000, 94.000000)">
                    <mask id="mask-2" fill="white">
                        <use xlink:href="#path-1"></use>
                    </mask>
                    <use id="Combined-Shape" fill="#000000" fill-rule="nonzero" xlink:href="#path-1"></use>
                    <g id="COLOR/-black" mask="url(#mask-2)" fill="#000000" fill-rule="evenodd">
                        <rect id="Rectangle" x="0" y="0" width="20" height="20"></rect>
                    </g>
                </g>
            </g>
        </g>
    </g>
</svg>