<?xml version="1.0" encoding="UTF-8"?>
<svg width="25px" height="25px" viewBox="0 0 25 25" version="1.1" xmlns="http://www.w3.org/2000/svg" xmlns:xlink="http://www.w3.org/1999/xlink">
    <!-- Generator: Sketch 64 (93537) - https://sketch.com -->
    <title>Icon / Instagram</title>
    <desc>Created with Sketch.</desc>
    <defs>
        <path d="M7.34110697,0.0790123457 C9.63870281,-0.0228719948 15.3244728,-0.0280701754 17.6199894,0.0790123457 C22.3160257,0.29525666 24.666643,2.95152697 24.872491,7.33151397 C24.9743753,9.62910981 24.9806131,15.3138402 24.872491,17.6103964 C24.7019907,21.3208577 22.9574812,23.3866147 20.6463701,24.2838207 C19.0436968,24.9043052 17.4770678,24.9369888 13.2738903,24.938698 L12.0818318,24.939492 C7.60766797,24.9545693 4.44551242,25.185007 2.10549943,22.8460039 C-0.257593488,20.482911 0.012711905,17.3244964 0.012711905,12.471475 L0.0120310919,12.0687152 C-0.002604269,7.54561706 -0.225424176,4.42786967 2.10549943,2.09694607 C3.54123692,0.661208577 5.32213361,0.173619233 7.34110697,0.0790123457 Z M12.435324,2.21650422 C9.10121093,2.21650422 8.71134738,2.23209877 7.38685096,2.27888239 C1.62206863,2.57413905 2.21154231,6.7108512 2.21154231,12.4548408 C2.21154231,16.6996751 1.8944533,19.4994152 3.64624017,21.242885 C5.09117844,22.6917739 7.04465992,22.6947862 11.6931858,22.6914652 L12.8425288,22.6913559 C17.6127825,22.6972985 19.7219421,22.7900551 21.2535176,21.2584795 C22.7994565,19.7052632 22.7017307,17.6083171 22.7027704,12.4704353 L22.7023327,11.5559225 C22.6996099,9.05330734 22.6833292,8.61494477 22.6299959,7.43131904 C22.3690472,1.66757635 18.0223285,2.24769331 12.4821076,2.24769331 L12.4821076,2.24769331 Z M12.4800283,6.06939571 C16.0147912,6.06939571 18.8821076,8.93359324 18.8821076,12.471475 C18.8821076,16.0062378 16.0179101,18.8735543 12.4800283,18.8735543 C8.94526551,18.8735543 6.07794907,16.0093567 6.07794907,12.471475 C6.07794907,8.93671215 8.9421466,6.06939571 12.4800283,6.06939571 Z M12.4800283,8.31604938 C10.1845118,8.31604938 8.32460274,10.1759584 8.32460274,12.471475 C8.32460274,14.7669916 10.1834721,16.6269006 12.4800283,16.6269006 C14.7765845,16.6269006 16.6364936,14.7669916 16.6354544,12.471475 C16.6354544,10.1759584 14.7755449,8.31604938 12.4800283,8.31604938 Z M19.1357788,4.32072775 C19.9620169,4.32072775 20.6318152,4.99052605 20.6318152,5.81676413 C20.6318152,6.64300221 19.9620169,7.31280052 19.1357788,7.31280052 C18.3095407,7.31280052 17.6397424,6.64300221 17.6397424,5.81676413 C17.6397424,4.99052605 18.3095407,4.32072775 19.1357788,4.32072775 Z" id="path-1"></path>
    </defs>
    <g id="Symbols" stroke="none" stroke-width="1" fill="none" fill-rule="evenodd" opacity="0.800000012">
        <g id="Footer-/-Blog" transform="translate(-185.000000, -292.000000)">
            <g id="Footer">
                <g id="Social-media2" transform="translate(185.000000, 292.000000)">
                    <g id="Icon-/-Instagram">
                        <g id="instagram-sketched-(1)">
                            <g id="Color-/-Coal" transform="translate(-0.000236, 0.000000)">
                                <mask id="mask-2" fill="white">
                                    <use xlink:href="#path-1"></use>
                                </mask>
                                <use id="Mask" fill="#000000" fill-rule="nonzero" xlink:href="#path-1"></use>
                                <g id="Color-/-Light-Gold" mask="url(#mask-2)" fill="white">
                                    <g transform="translate(0.000236, 0.000000)" id="Rectangle">
                                        <rect x="0" y="0" width="25" height="25"></rect>
                                    </g>
                                </g>
                            </g>
                        </g>
                    </g>
                </g>
            </g>
        </g>
    </g>
</svg>