<?xml version="1.0" encoding="UTF-8"?>
<svg width="20px" height="18px" viewBox="0 0 20 18" version="1.1" xmlns="http://www.w3.org/2000/svg" xmlns:xlink="http://www.w3.org/1999/xlink">
    <!-- Generator: Sketch 64 (93537) - https://sketch.com -->
    <title>Icon / Security</title>
    <desc>Created with Sketch.</desc>
    <defs>
        <path d="M10,11.6666667 C12.3011865,11.6666667 14.1666667,13.5321469 14.1666667,15.8333333 L14.1666667,15.8333333 L14.1666667,17.5 C14.1666667,17.9602373 13.7935706,18.3333333 13.3333333,18.3333333 C12.873096,18.3333333 12.5,17.9602373 12.5,17.5 L12.5,17.5 L12.5,15.8333333 C12.5,14.4526215 11.3807119,13.3333333 10,13.3333333 L10,13.3333333 L4.16666667,13.3333333 C2.78595479,13.3333333 1.66666667,14.4526215 1.66666667,15.8333333 L1.66666667,15.8333333 L1.66666667,17.5 C1.66666667,17.9602373 1.29357062,18.3333333 0.833333333,18.3333333 C0.373096042,18.3333333 0,17.9602373 0,17.5 L0,17.5 L0,15.8333333 C0,13.5321469 1.86548021,11.6666667 4.16666667,11.6666667 L4.16666667,11.6666667 Z M16.6666667,5.83333333 C17.126904,5.83333333 17.5,6.20642938 17.5,6.66666667 L17.5,6.66666667 L17.5,8.33266667 L19.1666667,8.33333333 C19.5915011,8.33333333 19.942085,8.65123765 19.9935072,9.0621351 L20,9.16666667 C20,9.62690396 19.626904,10 19.1666667,10 L19.1666667,10 L17.5,9.99966667 L17.5,11.6666667 C17.5,12.0915011 17.1820957,12.442085 16.7711982,12.4935072 L16.6666667,12.5 C16.2064294,12.5 15.8333333,12.126904 15.8333333,11.6666667 L15.8333333,11.6666667 L15.833,9.99966667 L14.1666667,10 C13.7418322,10 13.3912484,9.68209568 13.3398262,9.27119823 L13.3333333,9.16666667 C13.3333333,8.70642938 13.7064294,8.33333333 14.1666667,8.33333333 L14.1666667,8.33333333 L15.833,8.33266667 L15.8333333,6.66666667 C15.8333333,6.24183224 16.1512377,5.89124835 16.5621351,5.83982618 Z M7.08333333,1.66666667 C9.38451979,1.66666667 11.25,3.53214688 11.25,5.83333333 C11.25,8.13451979 9.38451979,10 7.08333333,10 C4.78214688,10 2.91666667,8.13451979 2.91666667,5.83333333 C2.91666667,3.53214688 4.78214688,1.66666667 7.08333333,1.66666667 Z M7.08333333,3.33333333 C5.70262146,3.33333333 4.58333333,4.45262146 4.58333333,5.83333333 C4.58333333,7.21404521 5.70262146,8.33333333 7.08333333,8.33333333 C8.46404521,8.33333333 9.58333333,7.21404521 9.58333333,5.83333333 C9.58333333,4.45262146 8.46404521,3.33333333 7.08333333,3.33333333 Z" id="path-1"></path>
    </defs>
    <g id="Symbols" stroke="none" stroke-width="1" fill="none" fill-rule="evenodd">
        <g id="Drop-down-/-Profile-/-Light" transform="translate(-112.000000, -161.000000)">
            <g id="Wallet-Copy-2" transform="translate(20.000000, 158.000000)">
                <g id="user-plus" transform="translate(92.000000, 2.000000)">
                    <mask id="mask-2" fill="white">
                        <use xlink:href="#path-1"></use>
                    </mask>
                    <use id="Combined-Shape" fill="#000000" fill-rule="nonzero" xlink:href="#path-1"></use>
                    <g id="Color-/-Black" mask="url(#mask-2)" fill="#000000" fill-rule="evenodd">
                        <rect id="Rectangle" x="0" y="0" width="20" height="20"></rect>
                    </g>
                </g>
            </g>
        </g>
    </g>
</svg>