<?xml version="1.0" encoding="UTF-8"?>
<svg width="27px" height="27px" viewBox="0 0 27 27" version="1.1" xmlns="http://www.w3.org/2000/svg" xmlns:xlink="http://www.w3.org/1999/xlink">
    <!-- Generator: Sketch 64 (93537) - https://sketch.com -->
    <title>Icon / LinkedIn</title>
    <desc>Created with Sketch.</desc>
    <defs>
        <path d="M18.3620533,7.38245614 C26.8662768,7.38245614 24.5873944,16.0020793 24.9512671,24.1705003 C24.9512671,24.6009097 24.6019493,24.9502274 24.17154,24.9502274 C24.2433755,24.9502274 22.0438051,24.9507045 20.5839641,24.9510123 L19.3268356,24.9512671 C17.9254061,24.9512671 18.814295,22.980117 18.5471085,16.568681 C18.5471085,14.2482131 18.2965562,13.2127355 16.805718,13.2127355 C15.4583496,13.2127355 14.6786225,13.7408707 14.6786225,16.4376868 C14.4103964,22.9666017 15.3055231,24.9502274 13.8988954,24.9502274 L13.8988954,24.9502274 L9.05419103,24.9502274 C7.57374919,24.9502274 8.58843405,23.2816114 8.27446394,8.55412606 C8.27446394,8.1237167 8.62378168,7.77439896 9.05419103,7.77439896 C12.8436647,8 14.4852502,7.15997401 14.4852502,8.67888239 C15.4240416,7.94074074 16.7267057,7.38245614 18.3620533,7.38245614 Z M1.16647173,7.7754386 C4.84054581,8.00311891 6.79610136,7.20883691 6.79610136,8.55516569 C6.48213125,23.3034438 7.49265757,24.9512671 6.01637427,24.9512671 L6.01637427,24.9512671 L1.16647173,24.9512671 C0.736062378,24.9512671 0.386744639,24.6019493 0.386744639,24.17154 C0.70071475,9.42326186 -0.309811566,7.7754386 1.16647173,7.7754386 Z M18.3620533,8.94191033 C16.9897336,8.94191033 15.5676061,9.66336022 14.0956707,11.10626 L14.0956707,11.10626 L12.925796,10.6833008 L12.925796,9.33385315 L9.83391813,9.33385315 L9.83391813,23.3907732 L13.1191683,23.3907732 C13.1191683,16.7870045 12.1367122,11.6532814 16.805718,11.6532814 C20.8925276,11.6532814 20.1065627,15.9646524 20.1065627,23.3918129 L20.1065627,23.3918129 L23.3918129,23.3918129 L23.3918129,15.591423 C23.3918129,10.7435997 22.0288499,8.94191033 18.3620533,8.94191033 Z M5.23664717,9.33489279 L1.94619883,9.33489279 L1.94619883,23.3918129 L5.23664717,23.3918129 L5.23664717,9.33489279 Z M3.58882391,7.50510765e-14 C8.35139701,7.50510765e-14 8.31397011,7.20363873 3.58882391,7.20363873 C-1.1394412,7.20363873 -1.16855101,7.50510765e-14 3.58882391,7.50510765e-14 Z M3.58882391,1.55945419 C0.89408707,1.55945419 0.919038337,5.64418454 3.58882391,5.64418454 C6.25445094,5.64418454 6.28875893,1.55945419 3.58882391,1.55945419 Z" id="path-1"></path>
    </defs>
    <g id="Symbols" stroke="none" stroke-width="1" fill="none" fill-rule="evenodd" opacity="0.800000012">
        <g id="Footer-/-Blog" transform="translate(-239.000000, -291.000000)">
            <g id="Footer">
                <g id="Social-media2" transform="translate(185.000000, 292.000000)">
                    <g id="Icon-/-LinkedIn" transform="translate(55.000000, 0.000000)">
                        <g id="linkedin-(1)">
                            <g id="Color-/-Coal">
                                <mask id="mask-2" fill="white">
                                    <use xlink:href="#path-1"></use>
                                </mask>
                                <use id="Mask" stroke="#FFFFFF" stroke-width="0.5" fill="#000000" fill-rule="nonzero" xlink:href="#path-1"></use>
                                <g id="Color-/-White" mask="url(#mask-2)" fill="#FFFFFF">
                                    <rect id="Rectangle" x="0" y="0" width="25" height="25"></rect>
                                </g>
                            </g>
                        </g>
                    </g>
                </g>
            </g>
        </g>
    </g>
</svg>