<?xml version="1.0" encoding="UTF-8"?>
<svg width="25px" height="23px" viewBox="0 0 25 23" version="1.1" xmlns="http://www.w3.org/2000/svg" xmlns:xlink="http://www.w3.org/1999/xlink">
    <!-- Generator: Sketch 64 (93537) - https://sketch.com -->
    <title>Icon / Telegram</title>
    <desc>Created with Sketch.</desc>
    <defs>
        <path d="M20.069914,22.8209985 C19.8751771,22.8209985 19.6817561,22.7633669 19.515835,22.6508669 L13.2472824,18.3987617 L9.88517712,20.8179722 C9.62149291,21.0075775 9.28162449,21.0553406 8.97544028,20.9458669 C8.66965081,20.8361301 8.43741397,20.5828406 8.35451923,20.2687617 L6.66636133,13.8711301 L0.63438765,11.5646827 C0.254650808,11.4194196 0.00280870276,11.0561301 2.25833751e-05,10.6495511 C-0.00271761303,10.2429722 0.244124492,9.87626167 0.622019229,9.72586693 L23.5578087,0.599551144 C23.6618877,0.555340617 23.7720192,0.529814301 23.8830719,0.522972196 C23.9228087,0.520603775 23.9626771,0.520603775 24.0022824,0.522840617 C24.2322824,0.536524828 24.4582034,0.630209038 24.6345192,0.803103775 C24.6528087,0.820998512 24.6701771,0.839287986 24.6866245,0.858366933 C24.8326771,1.02520904 24.9129403,1.22863009 24.9280719,1.43586693 C24.9317561,1.4879722 24.9314929,1.54073535 24.9268877,1.59349851 C24.9237298,1.63113009 24.918335,1.66863009 24.9107034,1.70586693 L21.0392561,22.0188932 C20.9770192,22.345209 20.754914,22.6183669 20.4480719,22.7456038 C20.3263613,22.7961301 20.1978087,22.8209985 20.069914,22.8209985 Z M13.7976771,16.3871827 L19.3814929,20.1746827 L22.3938613,4.36889325 L11.5139929,14.8381038 L13.7713613,16.3694196 C13.7804403,16.3750775 13.7891245,16.3811301 13.7976771,16.3871827 Z M9.14938765,15.5449459 L9.89701923,18.3778406 L11.5078087,17.2187617 L9.39859818,15.7879722 C9.30057186,15.7216564 9.21662449,15.6390248 9.14938765,15.5449459 Z M3.70215081,10.6244196 L7.84399291,12.2079722 C8.14070344,12.3213932 8.36465081,12.5708669 8.44570344,12.8779722 L8.9709666,14.8686301 C8.99504554,14.6390248 9.09912449,14.4229722 9.26820344,14.260209 L19.6351771,4.28468272 L3.70215081,10.6244196 Z" id="path-1"></path>
    </defs>
    <g id="Symbols" stroke="none" stroke-width="1" fill="none" fill-rule="evenodd" opacity="0.800000012">
        <g id="Footer-/-Blog" transform="translate(-295.000000, -294.000000)">
            <g id="Footer">
                <g id="Social-media2" transform="translate(185.000000, 292.000000)">
                    <g id="Icon-/-Telegram" transform="translate(110.000000, 0.000000)">
                        <g id="logo" transform="translate(0.000000, 2.083333)">
                            <g id="Color-/-Coal" transform="translate(-0.000046, -0.000346)">
                                <mask id="mask-2" fill="white">
                                    <use xlink:href="#path-1"></use>
                                </mask>
                                <use id="Mask" fill="#000000" fill-rule="nonzero" xlink:href="#path-1"></use>
                                <g id="Color-/-White" mask="url(#mask-2)" fill="#FFFFFF">
                                    <g transform="translate(0.000046, -1.041321)" id="Rectangle">
                                        <rect x="0" y="0" width="25" height="25"></rect>
                                    </g>
                                </g>
                            </g>
                        </g>
                    </g>
                </g>
            </g>
        </g>
    </g>
</svg>