<?xml version="1.0" encoding="UTF-8"?>
<svg width="27px" height="22px" viewBox="0 0 27 22" version="1.1" xmlns="http://www.w3.org/2000/svg" xmlns:xlink="http://www.w3.org/1999/xlink">
    <!-- Generator: Sketch 64 (93537) - https://sketch.com -->
    <title>Icon / Twitter</title>
    <desc>Created with Sketch.</desc>
    <defs>
        <path d="M0.39816273,18.4166555 C2.73097113,19.8969705 5.44593176,20.6791227 8.24908136,20.6791227 C12.3540682,20.6791227 16.115748,19.1022198 18.8422572,16.2392277 C21.4511811,13.4990702 22.8863517,9.81718046 22.8149606,6.08069752 C23.803937,5.23450329 24.9671916,3.61875526 24.9671916,2.04395211 C24.9671916,1.44027757 24.3120735,1.05707547 23.7808399,1.36468702 C22.851706,1.91061878 22.0044619,2.05340093 21.1330709,1.80878151 C19.3535433,0.0743983035 16.7047244,-0.290956027 14.4727034,0.912193579 C12.5220472,1.96206235 11.4375328,3.88332219 11.5351706,5.98305972 C8.23963255,5.58095998 5.19501312,3.92846654 3.07217848,1.36048754 C2.72362205,0.941589905 2.06220472,0.990933737 1.78503937,1.46547442 C0.762467192,3.21665552 0.772965879,5.24605185 1.66220472,6.88489699 C1.23910761,6.95943767 0.977690289,7.31534319 0.977690289,7.70064502 C0.977690289,9.34788912 1.71889764,10.8617999 2.91259843,11.8948707 C2.69002625,12.109044 2.61653543,12.4271542 2.71102362,12.7106188 C3.23595801,14.2875217 4.42440945,15.5200676 5.90997375,16.1373904 C4.29422572,16.909044 2.50734908,17.1662618 0.9167979,16.9709862 C0.0937007874,16.8597001 -0.312598425,17.9662618 0.39816273,18.4166555 Z M8.46430446,16.4072067 C9.05328084,15.9547133 8.74041995,15.0119311 8.00131234,14.9961831 C6.69947507,14.9688865 5.51417323,14.3274167 4.77611549,13.3184928 C5.132021,13.2953957 5.50052493,13.2408025 5.8511811,13.1463143 C6.65013123,12.9300413 6.61233596,11.7772854 5.8007874,11.6145558 C4.32782152,11.3184928 3.17191601,10.2455269 2.73832021,8.86389962 C3.13412073,8.96153741 3.53727034,9.01613059 3.93937008,9.02347967 C4.73622047,9.02767914 5.03753281,8.00615683 4.38766404,7.57886025 C2.92309711,6.61403085 2.2984252,4.91009384 2.71207349,3.3079941 C5.26955381,5.89907022 8.73937008,7.46022508 12.4097113,7.63660303 C12.9356955,7.66914896 13.3304462,7.17466077 13.2149606,6.67387337 C12.716273,4.51219358 13.923622,2.99723295 15.22021,2.29907022 C16.5031496,1.60615683 18.5629921,1.38988387 20.1419948,3.04657678 C20.6112861,3.54106497 22.1944882,3.55996261 22.9997375,3.3720361 C22.6385827,4.05235106 22.0832021,4.69802035 21.5635171,5.06127494 C21.3419948,5.21665552 21.2149606,5.47492324 21.2286089,5.74473951 C21.3976378,9.19355841 20.1125984,12.6224298 17.7031496,15.1515637 C15.275853,17.6995952 11.9194226,19.1032697 8.25013123,19.1032697 C6.79081365,19.1032697 5.35984252,18.8659994 4.00761155,18.4082566 C5.62440945,18.0953957 7.16036745,17.4108812 8.46430446,16.4072067 Z" id="path-1"></path>
    </defs>
    <g id="Symbols" stroke="none" stroke-width="1" fill="none" fill-rule="evenodd" opacity="0.800000012">
        <g id="Footer-/-Blog" transform="translate(-349.000000, -296.000000)">
            <g id="Footer">
                <g id="Social-media2" transform="translate(185.000000, 292.000000)">
                    <g id="Icon-/-Twitter" transform="translate(165.000000, 0.000000)">
                        <g id="twitter-(1)" transform="translate(0.000000, 4.166667)">
                            <g id="Color-/-Coal">
                                <mask id="mask-2" fill="white">
                                    <use xlink:href="#path-1"></use>
                                </mask>
                                <use id="Mask" stroke="#FFFFFF" stroke-width="0.5" fill="#000000" fill-rule="nonzero" xlink:href="#path-1"></use>
                                <g id="Color-/-White" mask="url(#mask-2)" fill="#FFFFFF">
                                    <g transform="translate(0.000000, -2.083333)" id="Rectangle">
                                        <rect x="0" y="0" width="25" height="25"></rect>
                                    </g>
                                </g>
                            </g>
                        </g>
                    </g>
                </g>
            </g>
        </g>
    </g>
</svg>